<svg xmlns="http://www.w3.org/2000/svg" viewBox="0 0 301.62 90.92"><defs><style>.cls-1{fill:none;}.cls-2{fill:#dc9c00;}.cls-3{fill:#00aee9;}.cls-4{fill:#007d35;}.cls-5{fill:#e6007e;}.cls-6{fill:#0060ab;}.cls-7{fill:#f2e975;}</style></defs><g id="Layer_2" data-name="Layer 2"><g id="Layer_1-2" data-name="Layer 1"><path class="cls-1" d="M136.85,74.9v-.55a11.78,11.78,0,0,1-2.36.55Z"/><path class="cls-1" d="M133.44,64.52a14.28,14.28,0,0,1,4,.52,17,17,0,0,0,.4-3.92,10,10,0,0,0-1.39-5.71,4.45,4.45,0,0,0-3.9-2,4.38,4.38,0,0,0-3.85,2q-1.36,2-1.37,6.23a13.11,13.11,0,0,0,.55,4h0A14,14,0,0,1,133.44,64.52Z"/><path class="cls-1" d="M128.88,82.41l0,.39a2.72,2.72,0,0,0,.89,2.1,3.47,3.47,0,0,0,2.45.82,5.79,5.79,0,0,0,2.77-.67,4.37,4.37,0,0,0,1.88-1.8V78.88h-2.54C130.91,78.88,129.1,80.05,128.88,82.41Z"/><path class="cls-1" d="M170.12,54a4.53,4.53,0,0,0-1.49,1.41c-.9,1.34-1.36,3.42-1.36,6.23a10.18,10.18,0,0,0,1.36,5.74,4.8,4.8,0,0,0,7.76,0q1.4-2,1.39-6.28a10,10,0,0,0-1.39-5.71,4.43,4.43,0,0,0-2.15-1.73A15.81,15.81,0,0,1,171,54C170.66,54,170.39,54,170.12,54Z"/><path class="cls-1" d="M181.46,51.6a12.61,12.61,0,0,1-.4-1.78c-.23.24-.46.45-.7.67.18.16.36.31.53.48S181.27,51.39,181.46,51.6Z"/><path class="cls-1" d="M199.8,53.43A4.38,4.38,0,0,0,196,55.51c-.94,1.38-1.4,3.44-1.4,6.19A9.81,9.81,0,0,0,196,67.32a4.35,4.35,0,0,0,3.8,2A4.69,4.69,0,0,0,204.2,67V55.85A4.68,4.68,0,0,0,199.8,53.43Z"/><path class="cls-1" d="M108.6,82.15l2.09-7.6h-1.07V57.7a4.74,4.74,0,0,0-.94-3.26,4.14,4.14,0,0,0-3.13-1,4.65,4.65,0,0,0-4.3,2.54v9h2.62Z"/><path class="cls-1" d="M168.06,41l0,.62a4.09,4.09,0,0,0,1.41,3.19,5.56,5.56,0,0,0,3.85,1.26,9.47,9.47,0,0,0,4.37-1,6.89,6.89,0,0,0,3-2.75V35.63h-4Q168.58,35.63,168.06,41Z"/><path class="cls-1" d="M25.24,75.3H34.7V75q-5.18-.21-6.39-4.67a4.06,4.06,0,0,0-1.45,1A7.11,7.11,0,0,0,25.24,75.3Z"/><path class="cls-1" d="M290.38,53.38a4.21,4.21,0,0,0-3.28,1.42,7.6,7.6,0,0,0-1.61,4.06h9.45V58.3a5.36,5.36,0,0,0-1.22-3.63A4.29,4.29,0,0,0,290.38,53.38Z"/><polygon class="cls-1" points="78.75 65 78.16 64.03 78.16 65 78.75 65"/><path class="cls-1" d="M58.36,58.3a5.36,5.36,0,0,0-1.23-3.63,4.27,4.27,0,0,0-3.33-1.29,4.2,4.2,0,0,0-3.28,1.42,7.45,7.45,0,0,0-1.61,4.06h9.45Z"/><path class="cls-1" d="M76.17,41l0,.62a4.09,4.09,0,0,0,1.41,3.19,5.56,5.56,0,0,0,3.85,1.26,9.47,9.47,0,0,0,4.37-1,6.89,6.89,0,0,0,3-2.75V35.63h-4Q76.7,35.63,76.17,41Z"/><path class="cls-1" d="M77,56.11,78.73,54a18.42,18.42,0,0,1-3-.31v4.17Z"/><path class="cls-2" d="M253.24,80.73a1.45,1.45,0,0,0-1.3.63,3.75,3.75,0,0,0-.45,2v2.82a4.17,4.17,0,0,0,.42,2.11,1.46,1.46,0,0,0,1.35.69,1.42,1.42,0,0,0,1.32-.67,4,4,0,0,0,.43-2V83.49a4,4,0,0,0-.43-2.1A1.49,1.49,0,0,0,253.24,80.73Z"/><path class="cls-2" d="M266.35,79.74a2.91,2.91,0,0,1,1.07,2.43,3.7,3.7,0,0,1-.48,1.75A9.94,9.94,0,0,1,265.28,86l-2.87,2.78h5.42v1.85h5.11V81.76l-3,.85V80.74L275.17,79h.27V90.63H300V78.88H263.32A4.71,4.71,0,0,1,266.35,79.74Z"/><path class="cls-2" d="M240.71,79.37a5.09,5.09,0,0,1,2.28-.49h-4.13v2.48a3.45,3.45,0,0,1,.3-.61A3.73,3.73,0,0,1,240.71,79.37Z"/><path class="cls-2" d="M249,86V83.82a5.48,5.48,0,0,1,1.1-3.69,4,4,0,0,1,3.15-1.25H243a4.7,4.7,0,0,1,3,.86,2.92,2.92,0,0,1,1.08,2.43,3.6,3.6,0,0,1-.49,1.75A9.62,9.62,0,0,1,244.94,86l-2.86,2.78h5.42v1.85H252a3.43,3.43,0,0,1-1.89-1.09A5.38,5.38,0,0,1,249,86Z"/><path class="cls-2" d="M244.18,83.58a2.19,2.19,0,0,0,.4-1.19,1.71,1.71,0,0,0-.42-1.22,1.64,1.64,0,0,0-1.22-.44,1.7,1.7,0,0,0-1.33.54,2,2,0,0,0-.49,1.41h-2.26v6.38l4.07-4A9.91,9.91,0,0,0,244.18,83.58Z"/><path class="cls-2" d="M263.27,85.06a9.75,9.75,0,0,0,1.24-1.48,2.21,2.21,0,0,0,.41-1.19,1.71,1.71,0,0,0-.43-1.22,1.62,1.62,0,0,0-1.21-.44,1.72,1.72,0,0,0-1.34.54,2,2,0,0,0-.49,1.41h-2.51a3.61,3.61,0,0,1,.55-1.93,3.82,3.82,0,0,1,1.56-1.38,5,5,0,0,1,2.27-.49H253.24a4,4,0,0,1,3.15,1.24,5.38,5.38,0,0,1,1.12,3.58v2.14a5.55,5.55,0,0,1-1.08,3.68,3.54,3.54,0,0,1-1.91,1.11h4.68V89.06Z"/><path class="cls-2" d="M63.55,53.3l-.21-.3.15.3Z"/><path class="cls-2" d="M62,51.12c.1.1.18.22.27.33L43.85,24.24,63,0H49.33L35.6,18.21l-4.89,6.5V0H19.6V53.3h4.63V48.2h3.71V41.72h2.77V38.36l5.77-6,11.24,17a11.49,11.49,0,0,1,6.1-1.64A10.36,10.36,0,0,1,62,51.12Z"/><path class="cls-2" d="M99.72,48.2a30,30,0,0,1-.26-3.88V27.47q0-6.54-4.35-10.14T83.35,13.72a22.75,22.75,0,0,0-8.81,1.63,14.14,14.14,0,0,0-6.07,4.51,10.23,10.23,0,0,0-2.15,6.25H77a4.24,4.24,0,0,1,1.54-3.45A6.5,6.5,0,0,1,82.8,21.4,5.7,5.7,0,0,1,87.3,23a6.28,6.28,0,0,1,1.42,4.31v2.23H83.8q-8.92,0-13.64,3.34a10.86,10.86,0,0,0-4.72,9.48,10.44,10.44,0,0,0,3.45,7.94V37.14h6.79V53.7a18.42,18.42,0,0,0,3,.31L83.5,48.2h8.16l-2.27,2.72a9.76,9.76,0,0,0,.85,2.38h4.22V48.2Zm-11-5.89a6.89,6.89,0,0,1-3,2.75,9.47,9.47,0,0,1-4.37,1,5.56,5.56,0,0,1-3.85-1.26,4.09,4.09,0,0,1-1.41-3.19l0-.62q.52-5.38,8.55-5.38h4Z"/><path class="cls-2" d="M126.15,49.39a10.7,10.7,0,0,1,1.59-.79V45.22a18.25,18.25,0,0,1-3.14.25c-1.61,0-2.69-.31-3.26-.94a4.5,4.5,0,0,1-.85-3.08V22.05h6.85V14.43h-6.85V4.88h-10.7v9.55h-5.85v7.62h5.85V43a15.24,15.24,0,0,0,.85,5,6.39,6.39,0,0,1,3.75,2.22,8.22,8.22,0,0,1,1.46,3,15.38,15.38,0,0,0,5.41.87l.78,0A10.88,10.88,0,0,1,126.15,49.39Z"/><path class="cls-2" d="M147,44.53a4.5,4.5,0,0,1-.85-3.08V22.05H153V14.43h-6.85V4.88h-10.7v9.55h-5.85v7.62h5.85V43a14.43,14.43,0,0,0,1,5.27A10.78,10.78,0,0,1,140.91,51a11.52,11.52,0,0,1,1.94,2.6,16.62,16.62,0,0,0,4,.45c.76,0,1.51-.05,2.25-.12V45.41A3.34,3.34,0,0,1,147,44.53Z"/><path class="cls-2" d="M191.93,49.92a24.9,24.9,0,0,1-.58-5.6V27.47q0-6.54-4.35-10.14t-11.76-3.61a22.71,22.71,0,0,0-8.81,1.63,14.14,14.14,0,0,0-6.07,4.51,10.23,10.23,0,0,0-2.15,6.25h10.7a4.21,4.21,0,0,1,1.54-3.45,6.5,6.5,0,0,1,4.24-1.26,5.7,5.7,0,0,1,4.5,1.62,6.28,6.28,0,0,1,1.42,4.31v2.23h-4.92q-8.92,0-13.65,3.34a10.88,10.88,0,0,0-4.72,9.48,10.49,10.49,0,0,0,3.87,8.33,12.78,12.78,0,0,0,2,1.4,10.77,10.77,0,0,1,2.95-2.72,11.94,11.94,0,0,1,6.36-1.68,11.44,11.44,0,0,1,7.87,2.78c.24-.22.47-.43.7-.67a12.61,12.61,0,0,0,.4,1.78,10.83,10.83,0,0,1,1.2,1.7h6.73a12.92,12.92,0,0,1,1.16-1.89A11,11,0,0,1,191.93,49.92Zm-11.32-7.61a6.89,6.89,0,0,1-3,2.75,9.47,9.47,0,0,1-4.37,1,5.56,5.56,0,0,1-3.85-1.26A4.09,4.09,0,0,1,168,41.63l0-.62q.52-5.38,8.55-5.38h4Z"/><path class="cls-2" d="M170.12,54c.27,0,.54,0,.83,0a15.81,15.81,0,0,0,3.29-.34,4.91,4.91,0,0,0-1.75-.3A4.59,4.59,0,0,0,170.12,54Z"/><path class="cls-3" d="M39.34,69.07h0Z"/><path class="cls-3" d="M34.7,75v-.26a5,5,0,0,0-1.22-3.51A4.38,4.38,0,0,0,30.14,70a4.7,4.7,0,0,0-1.83.34Q29.53,74.8,34.7,75Z"/><path class="cls-3" d="M24.23,53.3v.06h3.71V64.73a13.37,13.37,0,0,1,2.22-.21,12.37,12.37,0,0,1,4.57.8v-12h4.35V48.2H34.73V41.72h-4V53.3Z"/><polygon class="cls-2" points="27.94 48.2 24.23 48.2 24.23 53.3 30.71 53.3 30.71 41.72 27.94 41.72 27.94 48.2"/><polygon class="cls-4" points="27.94 48.2 24.23 48.2 24.23 53.3 30.71 53.3 30.71 41.72 27.94 41.72 27.94 48.2"/><path class="cls-3" d="M62.3,51.45l1,1.55A10.48,10.48,0,0,0,62.3,51.45Z"/><path class="cls-3" d="M47.56,66.8a9.37,9.37,0,0,1,1.81-1.14,7.62,7.62,0,0,1-.53-2H65V60.79a16.43,16.43,0,0,0-1.54-7.49H50.33l-2.61-3.95-.09,0a11.19,11.19,0,0,0-4.2,4.82A16.4,16.4,0,0,0,42,61.32V62a13.14,13.14,0,0,0,3,8.86A7.09,7.09,0,0,1,47.56,66.8Zm3-12a4.2,4.2,0,0,1,3.28-1.42,4.27,4.27,0,0,1,3.33,1.29,5.36,5.36,0,0,1,1.23,3.63v.56H48.91A7.45,7.45,0,0,1,50.52,54.8Z"/><path class="cls-3" d="M57.83,70.32a4,4,0,0,0-2.94-.95,4.06,4.06,0,0,0-2.66.78,2.43,2.43,0,0,0-.94,2A2.11,2.11,0,0,0,52.36,74a9.71,9.71,0,0,0,3,1,12.88,12.88,0,0,0,5-1.22,11.84,11.84,0,0,0,1.73-1H58.77A3.29,3.29,0,0,0,57.83,70.32Z"/><path class="cls-2" d="M63.49,53.3l-.15-.3-1-1.55c-.09-.11-.17-.23-.27-.33a10.36,10.36,0,0,0-8.21-3.41,11.49,11.49,0,0,0-6.1,1.64l2.61,3.95Z"/><path class="cls-4" d="M63.49,53.3l-.15-.3-1-1.55c-.09-.11-.17-.23-.27-.33a10.36,10.36,0,0,0-8.21-3.41,11.49,11.49,0,0,0-6.1,1.64l2.61,3.95Z"/><rect class="cls-3" x="68.89" y="69.98" width="2.47" height="4.57"/><path class="cls-3" d="M79.06,54h-.33L77,56.11l-1.31,1.76V53.7a13.53,13.53,0,0,1-6.38-3c-.14-.12-.27-.26-.41-.39V65h2.47V58.74h6.8V64l.59,1h3.76v5h-.68l2.83,4.57h2V65.61l-4.18-6.43,6.92-8.26c-.09-.36-.16-.72-.22-1.1A13.14,13.14,0,0,1,79.06,54Z"/><path class="cls-2" d="M83.5,48.2,78.73,54h.33a13.14,13.14,0,0,0,10.11-4.2c.06.38.13.74.22,1.1l2.27-2.72Z"/><path class="cls-4" d="M83.5,48.2,78.73,54h.33a13.14,13.14,0,0,0,10.11-4.2c.06.38.13.74.22,1.1l2.27-2.72Z"/><path class="cls-2" d="M75.68,53.7V37.14H68.89V50.32c.14.13.27.27.41.39A13.53,13.53,0,0,0,75.68,53.7Z"/><path class="cls-4" d="M75.68,53.7V37.14H68.89V50.32c.14.13.27.27.41.39A13.53,13.53,0,0,0,75.68,53.7Z"/><path class="cls-3" d="M110.64,48a10,10,0,0,0-2.27-.24,8.78,8.78,0,0,0-7.31,3.53l-.21-3H99.72a13.19,13.19,0,0,0,1.33,4.49v.61H94.46V74.55H100L96.77,65h4.48V56a4.65,4.65,0,0,1,4.3-2.54,4.14,4.14,0,0,1,3.13,1,4.74,4.74,0,0,1,.94,3.26V74.55h1.07L113.33,65h3.08V57.52a16.51,16.51,0,0,0-.56-4.37A8.55,8.55,0,0,1,110.64,48Z"/><path class="cls-2" d="M101.05,52.69a13.19,13.19,0,0,1-1.33-4.49H94.46v5.1h6.59Z"/><path class="cls-4" d="M101.05,52.69a13.19,13.19,0,0,1-1.33-4.49H94.46v5.1h6.59Z"/><path class="cls-2" d="M110.64,48a8.55,8.55,0,0,0,5.21,5.2,8.22,8.22,0,0,0-1.46-3A6.39,6.39,0,0,0,110.64,48Z"/><path class="cls-4" d="M110.64,48a8.55,8.55,0,0,0,5.21,5.2,8.22,8.22,0,0,0-1.46-3A6.39,6.39,0,0,0,110.64,48Z"/><path class="cls-3" d="M134.49,74.9a11.78,11.78,0,0,0,2.36-.55v-.91a4.2,4.2,0,0,0-.9-2.82,3.55,3.55,0,0,0-2.86-1.06,4,4,0,0,0-2.69.82,2.8,2.8,0,0,0-1,2.26h-4.29a11.21,11.21,0,0,0,6.5,2.36c.67-.06,1.36-.1,2.1-.1Z"/><path class="cls-3" d="M136.4,48.26a13.44,13.44,0,0,0-3.89-.55,12.47,12.47,0,0,0-4.77.89v4.48A22.32,22.32,0,0,1,122,54a1.09,1.09,0,0,0-.08.15,16.12,16.12,0,0,0-1.46,7v.32a15,15,0,0,0,2.5,9,7.18,7.18,0,0,1,1-1.87,8.94,8.94,0,0,1,3.85-3,13.11,13.11,0,0,1-.55-4q0-4.22,1.37-6.23a4.38,4.38,0,0,1,3.85-2,4.45,4.45,0,0,1,3.9,2,10,10,0,0,1,1.39,5.71,17,17,0,0,1-.4,3.92,9.44,9.44,0,0,1,3.51,1.85,7.51,7.51,0,0,1,1.88,2.43,15.36,15.36,0,0,0,1.8-7.68l-.05-1.8a15.07,15.07,0,0,0-1.69-6.27A8.71,8.71,0,0,1,136.4,48.26Z"/><path class="cls-2" d="M127.74,48.6a10.7,10.7,0,0,0-1.59.79A10.88,10.88,0,0,0,122,54a22.32,22.32,0,0,0,5.7-.91Z"/><path class="cls-4" d="M127.74,48.6a10.7,10.7,0,0,0-1.59.79A10.88,10.88,0,0,0,122,54a22.32,22.32,0,0,0,5.7-.91Z"/><path class="cls-2" d="M136.4,48.26a8.71,8.71,0,0,0,6.45,5.31,11.52,11.52,0,0,0-1.94-2.6A10.78,10.78,0,0,0,136.4,48.26Z"/><path class="cls-3" d="M136.4,48.26a8.71,8.71,0,0,0,6.45,5.31,11.52,11.52,0,0,0-1.94-2.6A10.78,10.78,0,0,0,136.4,48.26Z"/><path class="cls-3" d="M155.94,54.31V37.14h-6.81v8.27a9.06,9.06,0,0,0,1.09.06,18.25,18.25,0,0,0,3.14-.25v7.86a22.59,22.59,0,0,1-4.23.82V74.55h.12V54.31Z"/><path class="cls-2" d="M153.36,45.22a18.25,18.25,0,0,1-3.14.25,9.06,9.06,0,0,1-1.09-.06V53.9a22.59,22.59,0,0,0,4.23-.82Z"/><path class="cls-4" d="M153.36,45.22a18.25,18.25,0,0,1-3.14.25,9.06,9.06,0,0,1-1.09-.06V53.9a22.59,22.59,0,0,0,4.23-.82Z"/><path class="cls-3" d="M181.46,51.6c-.19-.21-.37-.43-.57-.63s-.35-.32-.53-.48a12.56,12.56,0,0,1-6.12,3.19,4.43,4.43,0,0,1,2.15,1.73,10,10,0,0,1,1.39,5.71q0,4.32-1.39,6.28a4.8,4.8,0,0,1-7.76,0,10.18,10.18,0,0,1-1.36-5.74c0-2.81.46-4.89,1.36-6.23A4.53,4.53,0,0,1,170.12,54a15,15,0,0,1-6.94-1.88,12.5,12.5,0,0,0-1.24,2,16,16,0,0,0-1.46,7v.32q0,6.28,3.28,9.93a12.33,12.33,0,0,0,17.54,0q3.27-3.66,3.27-9.73l0-1.8a14.76,14.76,0,0,0-1.86-6.54h-.53A8.48,8.48,0,0,1,181.46,51.6Z"/><path class="cls-2" d="M172.49,53.38a4.91,4.91,0,0,1,1.75.3,12.56,12.56,0,0,0,6.12-3.19,11.44,11.44,0,0,0-7.87-2.78,11.94,11.94,0,0,0-6.36,1.68,10.77,10.77,0,0,0-2.95,2.72A15,15,0,0,0,170.12,54,4.59,4.59,0,0,1,172.49,53.38Z"/><path class="cls-4" d="M172.49,53.38a4.91,4.91,0,0,1,1.75.3,12.56,12.56,0,0,0,6.12-3.19,11.44,11.44,0,0,0-7.87-2.78,11.94,11.94,0,0,0-6.36,1.68,10.77,10.77,0,0,0-2.95,2.72A15,15,0,0,0,170.12,54,4.59,4.59,0,0,1,172.49,53.38Z"/><path class="cls-2" d="M182.13,53.3h.53a10.83,10.83,0,0,0-1.2-1.7A8.48,8.48,0,0,0,182.13,53.3Z"/><path class="cls-3" d="M182.13,53.3h.53a10.83,10.83,0,0,0-1.2-1.7A8.48,8.48,0,0,0,182.13,53.3Z"/><path class="cls-3" d="M204.57,50.68a7.8,7.8,0,0,0-6.51-3,8.91,8.91,0,0,0-6.13,2.21,11.05,11.05,0,0,0,1,2.77v.61h-3.55a17.52,17.52,0,0,0-1.62,7.88v.29q0,6.14,2.83,9.85A8.89,8.89,0,0,0,198,75a7.76,7.76,0,0,0,6.19-2.75V73.7A5.76,5.76,0,0,1,202.69,78a5.69,5.69,0,0,1-4.21,1.5,7.85,7.85,0,0,1-6.15-3l-3,4.29a9.77,9.77,0,0,0,4,3,13.52,13.52,0,0,0,5.45,1.16,14.58,14.58,0,0,0,6.44-1.34,10,10,0,0,0,4.27-3.9,11.6,11.6,0,0,0,1.51-6V48.2h-6.16ZM204.2,67a4.69,4.69,0,0,1-4.45,2.41,4.35,4.35,0,0,1-3.8-2,9.81,9.81,0,0,1-1.39-5.62c0-2.75.46-4.81,1.4-6.19a4.38,4.38,0,0,1,3.84-2.08,4.68,4.68,0,0,1,4.4,2.42Z"/><path class="cls-2" d="M192.94,52.69a11.05,11.05,0,0,1-1-2.77,11,11,0,0,0-1.38,1.49,12.92,12.92,0,0,0-1.16,1.89h3.55Z"/><path class="cls-4" d="M192.94,52.69a11.05,11.05,0,0,1-1-2.77,11,11,0,0,0-1.38,1.49,12.92,12.92,0,0,0-1.16,1.89h3.55Z"/><path class="cls-3" d="M220,37.75a3.79,3.79,0,0,0-2.79,1,3.83,3.83,0,0,0,0,5.24,4.24,4.24,0,0,0,5.52,0,3.81,3.81,0,0,0,0-5.24A3.77,3.77,0,0,0,220,37.75Z"/><rect class="cls-3" x="216.58" y="48.2" width="6.82" height="26.35"/><path class="cls-3" d="M246.38,72.81a7,7,0,0,0,3-5.83q0-5.06-5.38-7.09a28.71,28.71,0,0,0-4.28-1.18,10.73,10.73,0,0,1-3.61-1.25A2.18,2.18,0,0,1,235,55.58a2.61,2.61,0,0,1,.94-2,4,4,0,0,1,2.66-.8,3.89,3.89,0,0,1,2.94,1,3.51,3.51,0,0,1,.94,2.5h6.79a7.56,7.56,0,0,0-2.9-6.14,12,12,0,0,0-7.75-2.36,11,11,0,0,0-7.34,2.35,7.32,7.32,0,0,0-2.81,5.86q0,6,9.07,8a13.83,13.83,0,0,1,4,1.32,2.29,2.29,0,0,1,1.23,2,2.42,2.42,0,0,1-1,2,4.81,4.81,0,0,1-3,.76,5.21,5.21,0,0,1-3.34-1,3.74,3.74,0,0,1-1.34-2.88H227.7a7.75,7.75,0,0,0,1.41,4.45A9.65,9.65,0,0,0,233,73.86,13.12,13.12,0,0,0,238.67,75,12.59,12.59,0,0,0,246.38,72.81Z"/><polygon class="cls-3" points="260.53 66.51 262.98 63.98 269.51 74.55 277.31 74.55 267.33 59.18 276.52 48.2 268.36 48.2 261.85 56.11 260.53 57.87 260.53 37.14 253.74 37.14 253.74 74.55 260.53 74.55 260.53 66.51"/><path class="cls-3" d="M301.62,60.79q0-6.26-3-9.67a10.39,10.39,0,0,0-8.21-3.41,11.47,11.47,0,0,0-6.2,1.69A11.11,11.11,0,0,0,280,54.22a16.4,16.4,0,0,0-1.48,7.1V62a12.9,12.9,0,0,0,3.51,9.47A12.25,12.25,0,0,0,291.16,75a13.13,13.13,0,0,0,5.78-1.26,10.27,10.27,0,0,0,4.14-3.49l-3.34-3.87a7.24,7.24,0,0,1-6.14,2.94,5.86,5.86,0,0,1-4.19-1.56,6.61,6.61,0,0,1-2-4.14h16.2Zm-6.68-1.93h-9.45a7.6,7.6,0,0,1,1.61-4.06,4.21,4.21,0,0,1,3.28-1.42,4.29,4.29,0,0,1,3.34,1.29,5.36,5.36,0,0,1,1.22,3.63Z"/><path class="cls-5" d="M6.25,56.18a8.81,8.81,0,0,0-2.46,6.65V65H0v5H3.79V90.45h6.82V70h5.06V65H10.61V63q0-3.6,3.84-3.6a8.8,8.8,0,0,1,2.07.21l.07-5.27a16.19,16.19,0,0,0-3.46-.47A9.54,9.54,0,0,0,6.25,56.18Z"/><path class="cls-5" d="M35.28,68.61a2.65,2.65,0,0,0,2.06.63,10.62,10.62,0,0,0,2-.17,8.94,8.94,0,0,0-.95-1.25,9.58,9.58,0,0,0-3.65-2.5v1.19A3.22,3.22,0,0,0,35.28,68.61Z"/><path class="cls-5" d="M35.23,75l-.53,0v.28H25.24a7.11,7.11,0,0,1,1.62-3.92,4.06,4.06,0,0,1,1.45-1,11.7,11.7,0,0,1-.37-2.79V64.73a11.23,11.23,0,0,0-4,1.43,10.88,10.88,0,0,0-4.2,4.66,15.33,15.33,0,0,0-1.48,6.86v.65a12.2,12.2,0,0,0,3.52,9.16,12.47,12.47,0,0,0,9.11,3.43,13.55,13.55,0,0,0,5.79-1.21,10.18,10.18,0,0,0,4.14-3.38L37.5,82.59a7.33,7.33,0,0,1-6.14,2.85,6,6,0,0,1-4.2-1.51,6.32,6.32,0,0,1-2-4H41.38V77.16a14.49,14.49,0,0,0-2-8.08V74.4A13.27,13.27,0,0,1,35.23,75Z"/><path class="cls-3" d="M27.94,64.73v2.83a11.7,11.7,0,0,0,.37,2.79A4.7,4.7,0,0,1,30.14,70a4.38,4.38,0,0,1,3.34,1.24,5,5,0,0,1,1.22,3.51V75l.53,0a13.27,13.27,0,0,0,4.11-.64V69.08h0a10.62,10.62,0,0,1-2,.17,2.65,2.65,0,0,1-2.06-.63,3.22,3.22,0,0,1-.55-2.1V65.32a12.37,12.37,0,0,0-4.57-.8A13.37,13.37,0,0,0,27.94,64.73Z"/><path class="cls-6" d="M27.94,64.73v2.83a11.7,11.7,0,0,0,.37,2.79A4.7,4.7,0,0,1,30.14,70a4.38,4.38,0,0,1,3.34,1.24,5,5,0,0,1,1.22,3.51V75l.53,0a13.27,13.27,0,0,0,4.11-.64V69.08h0a10.62,10.62,0,0,1-2,.17,2.65,2.65,0,0,1-2.06-.63,3.22,3.22,0,0,1-.55-2.1V65.32a12.37,12.37,0,0,0-4.57-.8A13.37,13.37,0,0,0,27.94,64.73Z"/><path class="cls-5" d="M55,69.36a7.23,7.23,0,0,0,6.13-2.94l3.34,3.87a10.19,10.19,0,0,1-2.41,2.45h3.49a7.18,7.18,0,0,0-2.91-5.93,12.2,12.2,0,0,0-7.75-2.29,12.71,12.71,0,0,0-5.54,1.14,6.24,6.24,0,0,0,1.45,2.14A5.9,5.9,0,0,0,55,69.36Z"/><path class="cls-5" d="M60.25,76.29A27.91,27.91,0,0,0,56,75.15L55.32,75c-.25,0-.49,0-.75,0a12.26,12.26,0,0,1-9.11-3.56c-.19-.2-.36-.41-.54-.61a7.36,7.36,0,0,0-.17,1.58q0,5.82,9.08,7.72a14,14,0,0,1,4,1.28,2.19,2.19,0,0,1,1.24,2,2.3,2.3,0,0,1-1,1.94,5,5,0,0,1-3,.74,5.27,5.27,0,0,1-3.34-1,3.53,3.53,0,0,1-1.35-2.77H44a7.25,7.25,0,0,0,1.41,4.29,9.5,9.5,0,0,0,3.89,3.13,13.49,13.49,0,0,0,5.68,1.14,12.91,12.91,0,0,0,7.72-2.15,6.65,6.65,0,0,0,3-5.64Q65.64,78.27,60.25,76.29Z"/><path class="cls-3" d="M54.57,75c.26,0,.5,0,.75,0a9.71,9.71,0,0,1-3-1,2.11,2.11,0,0,1-1.07-1.83,2.43,2.43,0,0,1,.94-2,4.06,4.06,0,0,1,2.66-.78,4,4,0,0,1,2.94.95,3.29,3.29,0,0,1,.94,2.42h3.31a10.19,10.19,0,0,0,2.41-2.45l-3.34-3.87A7.23,7.23,0,0,1,55,69.36a5.9,5.9,0,0,1-4.2-1.56,6.24,6.24,0,0,1-1.45-2.14,9.37,9.37,0,0,0-1.81,1.14,7.09,7.09,0,0,0-2.64,4.07c.18.2.35.41.54.61A12.26,12.26,0,0,0,54.57,75Z"/><path class="cls-6" d="M54.57,75c.26,0,.5,0,.75,0a9.71,9.71,0,0,1-3-1,2.11,2.11,0,0,1-1.07-1.83,2.43,2.43,0,0,1,.94-2,4.06,4.06,0,0,1,2.66-.78,4,4,0,0,1,2.94.95,3.29,3.29,0,0,1,.94,2.42h3.31a10.19,10.19,0,0,0,2.41-2.45l-3.34-3.87A7.23,7.23,0,0,1,55,69.36a5.9,5.9,0,0,1-4.2-1.56,6.24,6.24,0,0,1-1.45-2.14,9.37,9.37,0,0,0-1.81,1.14,7.09,7.09,0,0,0-2.64,4.07c.18.2.35.41.54.61A12.26,12.26,0,0,0,54.57,75Z"/><path class="cls-5" d="M78.16,65V64l0-.05-2.44,2.53v8H71.36V83.7q.14,7.22,7.29,7.22a14,14,0,0,0,4.12-.61V85.16a10.88,10.88,0,0,1-2,.16,2.71,2.71,0,0,1-2.07-.61,3,3,0,0,1-.54-2V70h3.67l-3.08-5Z"/><rect class="cls-5" x="67.64" y="65" width="1.25" height="4.99"/><polygon class="cls-3" points="82.51 65 78.75 65 81.83 69.98 82.51 69.98 82.51 65"/><polygon class="cls-6" points="82.51 65 78.75 65 81.83 69.98 82.51 69.98 82.51 65"/><polygon class="cls-3" points="75.68 66.51 78.12 63.98 78.16 64.03 78.16 58.74 71.36 58.74 71.36 65 68.89 65 68.89 69.98 71.36 69.98 71.36 74.55 75.68 74.55 75.68 66.51"/><polygon class="cls-6" points="75.68 66.51 78.12 63.98 78.16 64.03 78.16 58.74 71.36 58.74 71.36 65 68.89 65 68.89 69.98 71.36 69.98 71.36 74.55 75.68 74.55 75.68 66.51"/><path class="cls-5" d="M87.27,55.89a3.61,3.61,0,0,0,0,5.06,4.34,4.34,0,0,0,5.52,0,3.6,3.6,0,0,0,0-5.06,4.41,4.41,0,0,0-5.57,0Z"/><polygon class="cls-5" points="86.65 74.55 86.65 90.45 93.47 90.45 93.47 65 86.65 65 86.65 65.61 92.46 74.55 86.65 74.55"/><polygon class="cls-3" points="92.46 74.55 86.65 65.61 86.65 74.55 92.46 74.55"/><polygon class="cls-6" points="92.46 74.55 86.65 65.61 86.65 74.55 92.46 74.55"/><polygon class="cls-5" points="110.69 74.55 108.6 82.15 103.87 65 101.25 65 101.25 74.55 99.99 74.55 105.35 90.45 111.85 90.45 120.43 65 116.41 65 116.41 74.55 110.69 74.55"/><polygon class="cls-3" points="101.25 65 96.77 65 99.99 74.55 101.25 74.55 101.25 65"/><polygon class="cls-6" points="101.25 65 96.77 65 99.99 74.55 101.25 74.55 101.25 65"/><polygon class="cls-3" points="110.69 74.55 116.41 74.55 116.41 65 113.33 65 110.69 74.55"/><polygon class="cls-6" points="110.69 74.55 116.41 74.55 116.41 65 113.33 65 110.69 74.55"/><path class="cls-5" d="M132.56,69.36a4.44,4.44,0,0,0,3.85-2,6.85,6.85,0,0,0,1-2.36,14.28,14.28,0,0,0-4-.52,14,14,0,0,0-5.6,1.08h0a6.87,6.87,0,0,0,.82,1.77A4.42,4.42,0,0,0,132.56,69.36Z"/><path class="cls-5" d="M123.78,71.38a10.22,10.22,0,0,1-.78-1,6.64,6.64,0,0,0-.38,2.22h2.51A11.39,11.39,0,0,1,123.78,71.38Z"/><path class="cls-5" d="M136.85,74.35v.55h-2.36a15,15,0,0,1-1.93.14c-.32,0-.62,0-.93,0a13,13,0,0,0-6.57,2.09,7.19,7.19,0,0,0-3,6.21,7,7,0,0,0,2.46,5.46,9,9,0,0,0,6.19,2.16,8.25,8.25,0,0,0,6.43-2.75,7.59,7.59,0,0,0,.68,2.28h6.87v-.4a12.09,12.09,0,0,1-1-5.48v-11a9.61,9.61,0,0,0-.89-4.22,12,12,0,0,1-1.47,2.05A10.44,10.44,0,0,1,136.85,74.35Zm0,8.9a4.37,4.37,0,0,1-1.88,1.8,5.79,5.79,0,0,1-2.77.67,3.47,3.47,0,0,1-2.45-.82,2.72,2.72,0,0,1-.89-2.1l0-.39c.22-2.36,2-3.53,5.43-3.53h2.54Z"/><path class="cls-3" d="M134.49,74.9h-.76c-.74,0-1.43,0-2.1.1.31,0,.61,0,.93,0A15,15,0,0,0,134.49,74.9Z"/><path class="cls-5" d="M134.49,74.9h-.76c-.74,0-1.43,0-2.1.1.31,0,.61,0,.93,0A15,15,0,0,0,134.49,74.9Z"/><path class="cls-3" d="M140.91,66.89A9.44,9.44,0,0,0,137.4,65a6.85,6.85,0,0,1-1,2.36,4.79,4.79,0,0,1-7.75,0,6.87,6.87,0,0,1-.82-1.77,8.94,8.94,0,0,0-3.85,3,7.18,7.18,0,0,0-1,1.87,10.22,10.22,0,0,0,.78,1,11.39,11.39,0,0,0,1.35,1.26h4.29a2.8,2.8,0,0,1,1-2.26,4,4,0,0,1,2.69-.82A3.55,3.55,0,0,1,136,70.62a4.2,4.2,0,0,1,.9,2.82v.91a10.44,10.44,0,0,0,4.47-3,12,12,0,0,0,1.47-2.05A7.51,7.51,0,0,0,140.91,66.89Z"/><path class="cls-6" d="M140.91,66.89A9.44,9.44,0,0,0,137.4,65a6.85,6.85,0,0,1-1,2.36,4.79,4.79,0,0,1-7.75,0,6.87,6.87,0,0,1-.82-1.77,8.94,8.94,0,0,0-3.85,3,7.18,7.18,0,0,0-1,1.87,10.22,10.22,0,0,0,.78,1,11.39,11.39,0,0,0,1.35,1.26h4.29a2.8,2.8,0,0,1,1-2.26,4,4,0,0,1,2.69-.82A3.55,3.55,0,0,1,136,70.62a4.2,4.2,0,0,1,.9,2.82v.91a10.44,10.44,0,0,0,4.47-3,12,12,0,0,0,1.47-2.05A7.51,7.51,0,0,0,140.91,66.89Z"/><polygon class="cls-5" points="155.94 74.55 149.25 74.55 149.25 90.45 156.08 90.45 156.08 54.31 155.94 54.31 155.94 74.55"/><rect class="cls-3" x="149.25" y="54.31" width="6.69" height="20.24"/><rect class="cls-6" x="149.25" y="54.31" width="6.69" height="20.24"/><path class="cls-7" d="M238.61,82.68h.25V81.36A3.6,3.6,0,0,0,238.61,82.68Z"/><path class="cls-7" d="M242.08,88.78,244.94,86a9.62,9.62,0,0,0,1.66-2.08,3.6,3.6,0,0,0,.49-1.75A2.92,2.92,0,0,0,246,79.74a4.7,4.7,0,0,0-3-.86,5.09,5.09,0,0,0-2.28.49,3.73,3.73,0,0,0-1.55,1.38,3.45,3.45,0,0,0-.3.61v1.32h2.26a2,2,0,0,1,.49-1.41,1.7,1.7,0,0,1,1.33-.54,1.64,1.64,0,0,1,1.22.44,1.71,1.71,0,0,1,.42,1.22,2.19,2.19,0,0,1-.4,1.19,9.91,9.91,0,0,1-1.25,1.48l-4.07,4v1.57h8.64V88.78Z"/><path class="cls-7" d="M253.26,90.79a5,5,0,0,0,1.26-.16H252A4.93,4.93,0,0,0,253.26,90.79Z"/><path class="cls-7" d="M257.51,85.84V83.7a5.38,5.38,0,0,0-1.12-3.58,4.61,4.61,0,0,0-6.3,0,5.48,5.48,0,0,0-1.1,3.69V86a5.38,5.38,0,0,0,1.12,3.58A3.43,3.43,0,0,0,252,90.63h2.52a3.54,3.54,0,0,0,1.91-1.11A5.55,5.55,0,0,0,257.51,85.84Zm-2.5.41a4,4,0,0,1-.43,2,1.42,1.42,0,0,1-1.32.67,1.46,1.46,0,0,1-1.35-.69,4.17,4.17,0,0,1-.42-2.11V83.32a3.75,3.75,0,0,1,.45-2,1.45,1.45,0,0,1,1.3-.63,1.49,1.49,0,0,1,1.34.66,4,4,0,0,1,.43,2.1Z"/><path class="cls-7" d="M262.41,88.78,265.28,86a9.94,9.94,0,0,0,1.66-2.08,3.7,3.7,0,0,0,.48-1.75,2.91,2.91,0,0,0-1.07-2.43,4.71,4.71,0,0,0-3-.86,5,5,0,0,0-2.27.49,3.82,3.82,0,0,0-1.56,1.38,3.61,3.61,0,0,0-.55,1.93h2.51a2,2,0,0,1,.49-1.41,1.72,1.72,0,0,1,1.34-.54,1.62,1.62,0,0,1,1.21.44,1.71,1.71,0,0,1,.43,1.22,2.21,2.21,0,0,1-.41,1.19,9.75,9.75,0,0,1-1.24,1.48l-4.07,4v1.57h8.63V88.78Z"/><polygon class="cls-7" points="275.17 79.02 269.95 80.74 269.95 82.61 272.94 81.76 272.94 90.63 275.44 90.63 275.44 79.02 275.17 79.02"/></g></g></svg>